<svg width="420" height="81" viewBox="0 0 420 81" fill="none" xmlns="http://www.w3.org/2000/svg">
<path d="M71.1719 24.2656H74.1719C74.0156 25.7031 73.6042 26.9896 72.9375 28.125C72.2708 29.2604 71.3281 30.1615 70.1094 30.8281C68.8906 31.4844 67.3698 31.8125 65.5469 31.8125C64.2135 31.8125 63 31.5625 61.9062 31.0625C60.8229 30.5625 59.8906 29.8542 59.1094 28.9375C58.3281 28.0104 57.724 26.901 57.2969 25.6094C56.8802 24.3073 56.6719 22.8594 56.6719 21.2656V19C56.6719 17.4062 56.8802 15.9635 57.2969 14.6719C57.724 13.3698 58.3333 12.2552 59.125 11.3281C59.9271 10.401 60.8906 9.6875 62.0156 9.1875C63.1406 8.6875 64.4062 8.4375 65.8125 8.4375C67.5312 8.4375 68.9844 8.76042 70.1719 9.40625C71.3594 10.0521 72.2812 10.9479 72.9375 12.0938C73.6042 13.2292 74.0156 14.5469 74.1719 16.0469H71.1719C71.026 14.9844 70.7552 14.0729 70.3594 13.3125C69.9635 12.5417 69.401 11.9479 68.6719 11.5312C67.9427 11.1146 66.9896 10.9062 65.8125 10.9062C64.8021 10.9062 63.9115 11.099 63.1406 11.4844C62.3802 11.8698 61.7396 12.4167 61.2188 13.125C60.7083 13.8333 60.3229 14.6823 60.0625 15.6719C59.8021 16.6615 59.6719 17.7604 59.6719 18.9688V21.2656C59.6719 22.3802 59.7865 23.4271 60.0156 24.4062C60.2552 25.3854 60.6146 26.2448 61.0938 26.9844C61.5729 27.724 62.1823 28.3073 62.9219 28.7344C63.6615 29.151 64.5365 29.3594 65.5469 29.3594C66.8281 29.3594 67.849 29.1562 68.6094 28.75C69.3698 28.3438 69.9427 27.7604 70.3281 27C70.724 26.2396 71.0052 25.3281 71.1719 24.2656ZM87.8125 28.6094V19.9062C87.8125 19.2396 87.6771 18.6615 87.4062 18.1719C87.1458 17.6719 86.75 17.2865 86.2188 17.0156C85.6875 16.7448 85.0312 16.6094 84.25 16.6094C83.5208 16.6094 82.8802 16.7344 82.3281 16.9844C81.7865 17.2344 81.3594 17.5625 81.0469 17.9688C80.7448 18.375 80.5938 18.8125 80.5938 19.2812H77.7031C77.7031 18.6771 77.8594 18.0781 78.1719 17.4844C78.4844 16.8906 78.9323 16.3542 79.5156 15.875C80.1094 15.3854 80.8177 15 81.6406 14.7188C82.474 14.4271 83.401 14.2812 84.4219 14.2812C85.651 14.2812 86.7344 14.4896 87.6719 14.9062C88.6198 15.3229 89.3594 15.9531 89.8906 16.7969C90.4323 17.6302 90.7031 18.6771 90.7031 19.9375V27.8125C90.7031 28.375 90.75 28.974 90.8438 29.6094C90.9479 30.2448 91.099 30.7917 91.2969 31.25V31.5H88.2812C88.1354 31.1667 88.0208 30.724 87.9375 30.1719C87.8542 29.6094 87.8125 29.0885 87.8125 28.6094ZM88.3125 21.25L88.3438 23.2812H85.4219C84.599 23.2812 83.8646 23.349 83.2188 23.4844C82.5729 23.6094 82.0312 23.8021 81.5938 24.0625C81.1562 24.3229 80.8229 24.651 80.5938 25.0469C80.3646 25.4323 80.25 25.8854 80.25 26.4062C80.25 26.9375 80.3698 27.4219 80.6094 27.8594C80.849 28.2969 81.2083 28.6458 81.6875 28.9062C82.1771 29.1562 82.776 29.2812 83.4844 29.2812C84.3698 29.2812 85.151 29.0938 85.8281 28.7188C86.5052 28.3438 87.0417 27.8854 87.4375 27.3438C87.8438 26.8021 88.0625 26.276 88.0938 25.7656L89.3281 27.1562C89.2552 27.5938 89.0573 28.0781 88.7344 28.6094C88.4115 29.1406 87.9792 29.651 87.4375 30.1406C86.9062 30.6198 86.2708 31.0208 85.5312 31.3438C84.8021 31.6562 83.9792 31.8125 83.0625 31.8125C81.9167 31.8125 80.9115 31.5885 80.0469 31.1406C79.1927 30.6927 78.526 30.0938 78.0469 29.3438C77.5781 28.5833 77.3438 27.7344 77.3438 26.7969C77.3438 25.8906 77.5208 25.0938 77.875 24.4062C78.2292 23.7083 78.7396 23.1302 79.4062 22.6719C80.0729 22.2031 80.875 21.849 81.8125 21.6094C82.75 21.3698 83.7969 21.25 84.9531 21.25H88.3125ZM83.1406 12.0938L86.1719 7.5H89.6562L85.4688 12.0938H83.1406ZM98.1406 17.8438V38H95.2344V14.5938H97.8906L98.1406 17.8438ZM109.531 22.9062V23.2344C109.531 24.4635 109.385 25.6042 109.094 26.6562C108.802 27.6979 108.375 28.6042 107.812 29.375C107.26 30.1458 106.578 30.7448 105.766 31.1719C104.953 31.599 104.021 31.8125 102.969 31.8125C101.896 31.8125 100.948 31.6354 100.125 31.2812C99.3021 30.9271 98.6042 30.4115 98.0312 29.7344C97.4583 29.0573 97 28.2448 96.6562 27.2969C96.3229 26.349 96.0938 25.2812 95.9688 24.0938V22.3438C96.0938 21.0938 96.3281 19.974 96.6719 18.9844C97.0156 17.9948 97.4688 17.151 98.0312 16.4531C98.6042 15.7448 99.2969 15.2083 100.109 14.8438C100.922 14.4688 101.859 14.2812 102.922 14.2812C103.984 14.2812 104.927 14.4896 105.75 14.9062C106.573 15.3125 107.266 15.8958 107.828 16.6562C108.391 17.4167 108.812 18.3281 109.094 19.3906C109.385 20.4427 109.531 21.6146 109.531 22.9062ZM106.625 23.2344V22.9062C106.625 22.0625 106.536 21.2708 106.359 20.5312C106.182 19.7812 105.906 19.125 105.531 18.5625C105.167 17.9896 104.698 17.5417 104.125 17.2188C103.552 16.8854 102.87 16.7188 102.078 16.7188C101.349 16.7188 100.714 16.8438 100.172 17.0938C99.6406 17.3438 99.1875 17.6823 98.8125 18.1094C98.4375 18.526 98.1302 19.0052 97.8906 19.5469C97.6615 20.0781 97.4896 20.6302 97.375 21.2031V25.25C97.5833 25.9792 97.875 26.6667 98.25 27.3125C98.625 27.9479 99.125 28.4635 99.75 28.8594C100.375 29.2448 101.161 29.4375 102.109 29.4375C102.891 29.4375 103.562 29.276 104.125 28.9531C104.698 28.6198 105.167 28.1667 105.531 27.5938C105.906 27.0208 106.182 26.3646 106.359 25.625C106.536 24.875 106.625 24.0781 106.625 23.2344ZM123.062 27.0156C123.062 26.599 122.969 26.2135 122.781 25.8594C122.604 25.4948 122.234 25.1667 121.672 24.875C121.12 24.5729 120.286 24.3125 119.172 24.0938C118.234 23.8958 117.385 23.6615 116.625 23.3906C115.875 23.1198 115.234 22.7917 114.703 22.4062C114.182 22.0208 113.781 21.5677 113.5 21.0469C113.219 20.526 113.078 19.9167 113.078 19.2188C113.078 18.5521 113.224 17.9219 113.516 17.3281C113.818 16.7344 114.24 16.2083 114.781 15.75C115.333 15.2917 115.995 14.9323 116.766 14.6719C117.536 14.4115 118.396 14.2812 119.344 14.2812C120.698 14.2812 121.854 14.5208 122.812 15C123.771 15.4792 124.505 16.1198 125.016 16.9219C125.526 17.7135 125.781 18.5938 125.781 19.5625H122.891C122.891 19.0938 122.75 18.6406 122.469 18.2031C122.198 17.7552 121.797 17.3854 121.266 17.0938C120.745 16.8021 120.104 16.6562 119.344 16.6562C118.542 16.6562 117.891 16.7812 117.391 17.0312C116.901 17.2708 116.542 17.5781 116.312 17.9531C116.094 18.3281 115.984 18.724 115.984 19.1406C115.984 19.4531 116.036 19.7344 116.141 19.9844C116.255 20.224 116.453 20.4479 116.734 20.6562C117.016 20.8542 117.411 21.0417 117.922 21.2188C118.432 21.3958 119.083 21.5729 119.875 21.75C121.26 22.0625 122.401 22.4375 123.297 22.875C124.193 23.3125 124.859 23.849 125.297 24.4844C125.734 25.1198 125.953 25.8906 125.953 26.7969C125.953 27.5365 125.797 28.2135 125.484 28.8281C125.182 29.4427 124.74 29.974 124.156 30.4219C123.583 30.8594 122.896 31.2031 122.094 31.4531C121.302 31.6927 120.411 31.8125 119.422 31.8125C117.932 31.8125 116.672 31.5469 115.641 31.0156C114.609 30.4844 113.828 29.7969 113.297 28.9531C112.766 28.1094 112.5 27.2188 112.5 26.2812H115.406C115.448 27.0729 115.677 27.7031 116.094 28.1719C116.51 28.6302 117.021 28.9583 117.625 29.1562C118.229 29.3438 118.828 29.4375 119.422 29.4375C120.214 29.4375 120.875 29.3333 121.406 29.125C121.948 28.9167 122.359 28.6302 122.641 28.2656C122.922 27.901 123.062 27.4844 123.062 27.0156ZM140.094 27.5938V14.5938H143V31.5H140.234L140.094 27.5938ZM140.641 24.0312L141.844 24C141.844 25.125 141.724 26.1667 141.484 27.125C141.255 28.0729 140.88 28.8958 140.359 29.5938C139.839 30.2917 139.156 30.8385 138.312 31.2344C137.469 31.6198 136.443 31.8125 135.234 31.8125C134.411 31.8125 133.656 31.6927 132.969 31.4531C132.292 31.2135 131.708 30.8438 131.219 30.3438C130.729 29.8438 130.349 29.1927 130.078 28.3906C129.818 27.5885 129.688 26.625 129.688 25.5V14.5938H132.578V25.5312C132.578 26.2917 132.661 26.9219 132.828 27.4219C133.005 27.9115 133.24 28.3021 133.531 28.5938C133.833 28.875 134.167 29.0729 134.531 29.1875C134.906 29.3021 135.292 29.3594 135.688 29.3594C136.917 29.3594 137.891 29.125 138.609 28.6562C139.328 28.1771 139.844 27.5365 140.156 26.7344C140.479 25.9219 140.641 25.0208 140.641 24.0312ZM150.547 7.5V31.5H147.641V7.5H150.547ZM165.156 28.6094V19.9062C165.156 19.2396 165.021 18.6615 164.75 18.1719C164.49 17.6719 164.094 17.2865 163.562 17.0156C163.031 16.7448 162.375 16.6094 161.594 16.6094C160.865 16.6094 160.224 16.7344 159.672 16.9844C159.13 17.2344 158.703 17.5625 158.391 17.9688C158.089 18.375 157.938 18.8125 157.938 19.2812H155.047C155.047 18.6771 155.203 18.0781 155.516 17.4844C155.828 16.8906 156.276 16.3542 156.859 15.875C157.453 15.3854 158.161 15 158.984 14.7188C159.818 14.4271 160.745 14.2812 161.766 14.2812C162.995 14.2812 164.078 14.4896 165.016 14.9062C165.964 15.3229 166.703 15.9531 167.234 16.7969C167.776 17.6302 168.047 18.6771 168.047 19.9375V27.8125C168.047 28.375 168.094 28.974 168.188 29.6094C168.292 30.2448 168.443 30.7917 168.641 31.25V31.5H165.625C165.479 31.1667 165.365 30.724 165.281 30.1719C165.198 29.6094 165.156 29.0885 165.156 28.6094ZM165.656 21.25L165.688 23.2812H162.766C161.943 23.2812 161.208 23.349 160.562 23.4844C159.917 23.6094 159.375 23.8021 158.938 24.0625C158.5 24.3229 158.167 24.651 157.938 25.0469C157.708 25.4323 157.594 25.8854 157.594 26.4062C157.594 26.9375 157.714 27.4219 157.953 27.8594C158.193 28.2969 158.552 28.6458 159.031 28.9062C159.521 29.1562 160.12 29.2812 160.828 29.2812C161.714 29.2812 162.495 29.0938 163.172 28.7188C163.849 28.3438 164.385 27.8854 164.781 27.3438C165.188 26.8021 165.406 26.276 165.438 25.7656L166.672 27.1562C166.599 27.5938 166.401 28.0781 166.078 28.6094C165.755 29.1406 165.323 29.651 164.781 30.1406C164.25 30.6198 163.615 31.0208 162.875 31.3438C162.146 31.6562 161.323 31.8125 160.406 31.8125C159.26 31.8125 158.255 31.5885 157.391 31.1406C156.536 30.6927 155.87 30.0938 155.391 29.3438C154.922 28.5833 154.688 27.7344 154.688 26.7969C154.688 25.8906 154.865 25.0938 155.219 24.4062C155.573 23.7083 156.083 23.1302 156.75 22.6719C157.417 22.2031 158.219 21.849 159.156 21.6094C160.094 21.3698 161.141 21.25 162.297 21.25H165.656ZM191.188 28.2188V7.5H194.094V31.5H191.438L191.188 28.2188ZM179.812 23.2344V22.9062C179.812 21.6146 179.969 20.4427 180.281 19.3906C180.604 18.3281 181.057 17.4167 181.641 16.6562C182.234 15.8958 182.938 15.3125 183.75 14.9062C184.573 14.4896 185.49 14.2812 186.5 14.2812C187.562 14.2812 188.49 14.4688 189.281 14.8438C190.083 15.2083 190.76 15.7448 191.312 16.4531C191.875 17.151 192.318 17.9948 192.641 18.9844C192.964 19.974 193.188 21.0938 193.312 22.3438V23.7812C193.198 25.0208 192.974 26.1354 192.641 27.125C192.318 28.1146 191.875 28.9583 191.312 29.6562C190.76 30.3542 190.083 30.8906 189.281 31.2656C188.479 31.6302 187.542 31.8125 186.469 31.8125C185.479 31.8125 184.573 31.599 183.75 31.1719C182.938 30.7448 182.234 30.1458 181.641 29.375C181.057 28.6042 180.604 27.6979 180.281 26.6562C179.969 25.6042 179.812 24.4635 179.812 23.2344ZM182.719 22.9062V23.2344C182.719 24.0781 182.802 24.8698 182.969 25.6094C183.146 26.349 183.417 27 183.781 27.5625C184.146 28.125 184.609 28.5677 185.172 28.8906C185.734 29.2031 186.406 29.3594 187.188 29.3594C188.146 29.3594 188.932 29.1562 189.547 28.75C190.172 28.3438 190.672 27.8073 191.047 27.1406C191.422 26.474 191.714 25.75 191.922 24.9688V21.2031C191.797 20.6302 191.615 20.0781 191.375 19.5469C191.146 19.0052 190.844 18.526 190.469 18.1094C190.104 17.6823 189.651 17.3438 189.109 17.0938C188.578 16.8438 187.948 16.7188 187.219 16.7188C186.427 16.7188 185.745 16.8854 185.172 17.2188C184.609 17.5417 184.146 17.9896 183.781 18.5625C183.417 19.125 183.146 19.7812 182.969 20.5312C182.802 21.2708 182.719 22.0625 182.719 22.9062ZM197.828 23.2344V22.875C197.828 21.6562 198.005 20.526 198.359 19.4844C198.714 18.4323 199.224 17.5208 199.891 16.75C200.557 15.9688 201.365 15.3646 202.312 14.9375C203.26 14.5 204.323 14.2812 205.5 14.2812C206.688 14.2812 207.755 14.5 208.703 14.9375C209.661 15.3646 210.474 15.9688 211.141 16.75C211.818 17.5208 212.333 18.4323 212.688 19.4844C213.042 20.526 213.219 21.6562 213.219 22.875V23.2344C213.219 24.4531 213.042 25.5833 212.688 26.625C212.333 27.6667 211.818 28.5781 211.141 29.3594C210.474 30.1302 209.667 30.7344 208.719 31.1719C207.781 31.599 206.719 31.8125 205.531 31.8125C204.344 31.8125 203.276 31.599 202.328 31.1719C201.38 30.7344 200.568 30.1302 199.891 29.3594C199.224 28.5781 198.714 27.6667 198.359 26.625C198.005 25.5833 197.828 24.4531 197.828 23.2344ZM200.719 22.875V23.2344C200.719 24.0781 200.818 24.875 201.016 25.625C201.214 26.3646 201.51 27.0208 201.906 27.5938C202.312 28.1667 202.818 28.6198 203.422 28.9531C204.026 29.276 204.729 29.4375 205.531 29.4375C206.323 29.4375 207.016 29.276 207.609 28.9531C208.214 28.6198 208.714 28.1667 209.109 27.5938C209.505 27.0208 209.802 26.3646 210 25.625C210.208 24.875 210.312 24.0781 210.312 23.2344V22.875C210.312 22.0417 210.208 21.2552 210 20.5156C209.802 19.7656 209.5 19.1042 209.094 18.5312C208.698 17.9479 208.198 17.4896 207.594 17.1562C207 16.8229 206.302 16.6562 205.5 16.6562C204.708 16.6562 204.01 16.8229 203.406 17.1562C202.812 17.4896 202.312 17.9479 201.906 18.5312C201.51 19.1042 201.214 19.7656 201.016 20.5156C200.818 21.2552 200.719 22.0417 200.719 22.875ZM231.859 14.5938V16.8125H222.719V14.5938H231.859ZM225.812 10.4844H228.703V27.3125C228.703 27.8854 228.792 28.3177 228.969 28.6094C229.146 28.901 229.375 29.0938 229.656 29.1875C229.938 29.2812 230.24 29.3281 230.562 29.3281C230.802 29.3281 231.052 29.3073 231.312 29.2656C231.583 29.2135 231.786 29.1719 231.922 29.1406L231.938 31.5C231.708 31.5729 231.406 31.6406 231.031 31.7031C230.667 31.776 230.224 31.8125 229.703 31.8125C228.995 31.8125 228.344 31.6719 227.75 31.3906C227.156 31.1094 226.682 30.6406 226.328 29.9844C225.984 29.3177 225.812 28.4219 225.812 27.2969V10.4844ZM242.266 31.8125C241.089 31.8125 240.021 31.6146 239.062 31.2188C238.115 30.8125 237.297 30.2448 236.609 29.5156C235.932 28.7865 235.411 27.9219 235.047 26.9219C234.682 25.9219 234.5 24.8281 234.5 23.6406V22.9844C234.5 21.6094 234.703 20.3854 235.109 19.3125C235.516 18.2292 236.068 17.3125 236.766 16.5625C237.464 15.8125 238.255 15.2448 239.141 14.8594C240.026 14.474 240.943 14.2812 241.891 14.2812C243.099 14.2812 244.141 14.4896 245.016 14.9062C245.901 15.3229 246.625 15.9062 247.188 16.6562C247.75 17.3958 248.167 18.2708 248.438 19.2812C248.708 20.2812 248.844 21.375 248.844 22.5625V23.8594H236.219V21.5H245.953V21.2812C245.911 20.5312 245.755 19.8021 245.484 19.0938C245.224 18.3854 244.807 17.8021 244.234 17.3438C243.661 16.8854 242.88 16.6562 241.891 16.6562C241.234 16.6562 240.63 16.7969 240.078 17.0781C239.526 17.349 239.052 17.7552 238.656 18.2969C238.26 18.8385 237.953 19.5 237.734 20.2812C237.516 21.0625 237.406 21.9635 237.406 22.9844V23.6406C237.406 24.4427 237.516 25.1979 237.734 25.9062C237.964 26.6042 238.292 27.2188 238.719 27.75C239.156 28.2812 239.682 28.6979 240.297 29C240.922 29.3021 241.63 29.4531 242.422 29.4531C243.443 29.4531 244.307 29.2448 245.016 28.8281C245.724 28.4115 246.344 27.8542 246.875 27.1562L248.625 28.5469C248.26 29.099 247.797 29.625 247.234 30.125C246.672 30.625 245.979 31.0312 245.156 31.3438C244.344 31.6562 243.38 31.8125 242.266 31.8125ZM255.094 17.9531V31.5H252.188V14.5938H254.938L255.094 17.9531ZM254.5 22.4062L253.156 22.3594C253.167 21.2031 253.318 20.1354 253.609 19.1562C253.901 18.1667 254.333 17.3073 254.906 16.5781C255.479 15.849 256.193 15.2865 257.047 14.8906C257.901 14.4844 258.891 14.2812 260.016 14.2812C260.807 14.2812 261.536 14.3958 262.203 14.625C262.87 14.8438 263.448 15.1927 263.938 15.6719C264.427 16.151 264.807 16.7656 265.078 17.5156C265.349 18.2656 265.484 19.1719 265.484 20.2344V31.5H262.594V20.375C262.594 19.4896 262.443 18.7812 262.141 18.25C261.849 17.7188 261.432 17.3333 260.891 17.0938C260.349 16.8438 259.714 16.7188 258.984 16.7188C258.13 16.7188 257.417 16.8698 256.844 17.1719C256.271 17.474 255.812 17.8906 255.469 18.4219C255.125 18.9531 254.875 19.5625 254.719 20.25C254.573 20.9271 254.5 21.6458 254.5 22.4062ZM265.453 20.8125L263.516 21.4062C263.526 20.4792 263.677 19.5885 263.969 18.7344C264.271 17.8802 264.703 17.1198 265.266 16.4531C265.839 15.7865 266.542 15.2604 267.375 14.875C268.208 14.4792 269.161 14.2812 270.234 14.2812C271.141 14.2812 271.943 14.401 272.641 14.6406C273.349 14.8802 273.943 15.25 274.422 15.75C274.911 16.2396 275.281 16.8698 275.531 17.6406C275.781 18.4115 275.906 19.3281 275.906 20.3906V31.5H273V20.3594C273 19.4115 272.849 18.6771 272.547 18.1562C272.255 17.625 271.839 17.2552 271.297 17.0469C270.766 16.8281 270.13 16.7188 269.391 16.7188C268.755 16.7188 268.193 16.8281 267.703 17.0469C267.214 17.2656 266.802 17.5677 266.469 17.9531C266.135 18.3281 265.88 18.7604 265.703 19.25C265.536 19.7396 265.453 20.2604 265.453 20.8125ZM283.172 17.8438V38H280.266V14.5938H282.922L283.172 17.8438ZM294.562 22.9062V23.2344C294.562 24.4635 294.417 25.6042 294.125 26.6562C293.833 27.6979 293.406 28.6042 292.844 29.375C292.292 30.1458 291.609 30.7448 290.797 31.1719C289.984 31.599 289.052 31.8125 288 31.8125C286.927 31.8125 285.979 31.6354 285.156 31.2812C284.333 30.9271 283.635 30.4115 283.062 29.7344C282.49 29.0573 282.031 28.2448 281.688 27.2969C281.354 26.349 281.125 25.2812 281 24.0938V22.3438C281.125 21.0938 281.359 19.974 281.703 18.9844C282.047 17.9948 282.5 17.151 283.062 16.4531C283.635 15.7448 284.328 15.2083 285.141 14.8438C285.953 14.4688 286.891 14.2812 287.953 14.2812C289.016 14.2812 289.958 14.4896 290.781 14.9062C291.604 15.3125 292.297 15.8958 292.859 16.6562C293.422 17.4167 293.844 18.3281 294.125 19.3906C294.417 20.4427 294.562 21.6146 294.562 22.9062ZM291.656 23.2344V22.9062C291.656 22.0625 291.568 21.2708 291.391 20.5312C291.214 19.7812 290.938 19.125 290.562 18.5625C290.198 17.9896 289.729 17.5417 289.156 17.2188C288.583 16.8854 287.901 16.7188 287.109 16.7188C286.38 16.7188 285.745 16.8438 285.203 17.0938C284.672 17.3438 284.219 17.6823 283.844 18.1094C283.469 18.526 283.161 19.0052 282.922 19.5469C282.693 20.0781 282.521 20.6302 282.406 21.2031V25.25C282.615 25.9792 282.906 26.6667 283.281 27.3125C283.656 27.9479 284.156 28.4635 284.781 28.8594C285.406 29.2448 286.193 29.4375 287.141 29.4375C287.922 29.4375 288.594 29.276 289.156 28.9531C289.729 28.6198 290.198 28.1667 290.562 27.5938C290.938 27.0208 291.214 26.3646 291.391 25.625C291.568 24.875 291.656 24.0781 291.656 23.2344ZM297.484 23.2344V22.875C297.484 21.6562 297.661 20.526 298.016 19.4844C298.37 18.4323 298.88 17.5208 299.547 16.75C300.214 15.9688 301.021 15.3646 301.969 14.9375C302.917 14.5 303.979 14.2812 305.156 14.2812C306.344 14.2812 307.411 14.5 308.359 14.9375C309.318 15.3646 310.13 15.9688 310.797 16.75C311.474 17.5208 311.99 18.4323 312.344 19.4844C312.698 20.526 312.875 21.6562 312.875 22.875V23.2344C312.875 24.4531 312.698 25.5833 312.344 26.625C311.99 27.6667 311.474 28.5781 310.797 29.3594C310.13 30.1302 309.323 30.7344 308.375 31.1719C307.438 31.599 306.375 31.8125 305.188 31.8125C304 31.8125 302.932 31.599 301.984 31.1719C301.036 30.7344 300.224 30.1302 299.547 29.3594C298.88 28.5781 298.37 27.6667 298.016 26.625C297.661 25.5833 297.484 24.4531 297.484 23.2344ZM300.375 22.875V23.2344C300.375 24.0781 300.474 24.875 300.672 25.625C300.87 26.3646 301.167 27.0208 301.562 27.5938C301.969 28.1667 302.474 28.6198 303.078 28.9531C303.682 29.276 304.385 29.4375 305.188 29.4375C305.979 29.4375 306.672 29.276 307.266 28.9531C307.87 28.6198 308.37 28.1667 308.766 27.5938C309.161 27.0208 309.458 26.3646 309.656 25.625C309.865 24.875 309.969 24.0781 309.969 23.2344V22.875C309.969 22.0417 309.865 21.2552 309.656 20.5156C309.458 19.7656 309.156 19.1042 308.75 18.5312C308.354 17.9479 307.854 17.4896 307.25 17.1562C306.656 16.8229 305.958 16.6562 305.156 16.6562C304.365 16.6562 303.667 16.8229 303.062 17.1562C302.469 17.4896 301.969 17.9479 301.562 18.5312C301.167 19.1042 300.87 19.7656 300.672 20.5156C300.474 21.2552 300.375 22.0417 300.375 22.875ZM335.094 28.2188V7.5H338V31.5H335.344L335.094 28.2188ZM323.719 23.2344V22.9062C323.719 21.6146 323.875 20.4427 324.188 19.3906C324.51 18.3281 324.964 17.4167 325.547 16.6562C326.141 15.8958 326.844 15.3125 327.656 14.9062C328.479 14.4896 329.396 14.2812 330.406 14.2812C331.469 14.2812 332.396 14.4688 333.188 14.8438C333.99 15.2083 334.667 15.7448 335.219 16.4531C335.781 17.151 336.224 17.9948 336.547 18.9844C336.87 19.974 337.094 21.0938 337.219 22.3438V23.7812C337.104 25.0208 336.88 26.1354 336.547 27.125C336.224 28.1146 335.781 28.9583 335.219 29.6562C334.667 30.3542 333.99 30.8906 333.188 31.2656C332.385 31.6302 331.448 31.8125 330.375 31.8125C329.385 31.8125 328.479 31.599 327.656 31.1719C326.844 30.7448 326.141 30.1458 325.547 29.375C324.964 28.6042 324.51 27.6979 324.188 26.6562C323.875 25.6042 323.719 24.4635 323.719 23.2344ZM326.625 22.9062V23.2344C326.625 24.0781 326.708 24.8698 326.875 25.6094C327.052 26.349 327.323 27 327.688 27.5625C328.052 28.125 328.516 28.5677 329.078 28.8906C329.641 29.2031 330.312 29.3594 331.094 29.3594C332.052 29.3594 332.839 29.1562 333.453 28.75C334.078 28.3438 334.578 27.8073 334.953 27.1406C335.328 26.474 335.62 25.75 335.828 24.9688V21.2031C335.703 20.6302 335.521 20.0781 335.281 19.5469C335.052 19.0052 334.75 18.526 334.375 18.1094C334.01 17.6823 333.557 17.3438 333.016 17.0938C332.484 16.8438 331.854 16.7188 331.125 16.7188C330.333 16.7188 329.651 16.8854 329.078 17.2188C328.516 17.5417 328.052 17.9896 327.688 18.5625C327.323 19.125 327.052 19.7812 326.875 20.5312C326.708 21.2708 326.625 22.0625 326.625 22.9062ZM349.516 31.8125C348.339 31.8125 347.271 31.6146 346.312 31.2188C345.365 30.8125 344.547 30.2448 343.859 29.5156C343.182 28.7865 342.661 27.9219 342.297 26.9219C341.932 25.9219 341.75 24.8281 341.75 23.6406V22.9844C341.75 21.6094 341.953 20.3854 342.359 19.3125C342.766 18.2292 343.318 17.3125 344.016 16.5625C344.714 15.8125 345.505 15.2448 346.391 14.8594C347.276 14.474 348.193 14.2812 349.141 14.2812C350.349 14.2812 351.391 14.4896 352.266 14.9062C353.151 15.3229 353.875 15.9062 354.438 16.6562C355 17.3958 355.417 18.2708 355.688 19.2812C355.958 20.2812 356.094 21.375 356.094 22.5625V23.8594H343.469V21.5H353.203V21.2812C353.161 20.5312 353.005 19.8021 352.734 19.0938C352.474 18.3854 352.057 17.8021 351.484 17.3438C350.911 16.8854 350.13 16.6562 349.141 16.6562C348.484 16.6562 347.88 16.7969 347.328 17.0781C346.776 17.349 346.302 17.7552 345.906 18.2969C345.51 18.8385 345.203 19.5 344.984 20.2812C344.766 21.0625 344.656 21.9635 344.656 22.9844V23.6406C344.656 24.4427 344.766 25.1979 344.984 25.9062C345.214 26.6042 345.542 27.2188 345.969 27.75C346.406 28.2812 346.932 28.6979 347.547 29C348.172 29.3021 348.88 29.4531 349.672 29.4531C350.693 29.4531 351.557 29.2448 352.266 28.8281C352.974 28.4115 353.594 27.8542 354.125 27.1562L355.875 28.5469C355.51 29.099 355.047 29.625 354.484 30.125C353.922 30.625 353.229 31.0312 352.406 31.3438C351.594 31.6562 350.63 31.8125 349.516 31.8125ZM76.5781 48.75H85.0625C86.8021 48.75 88.2969 49.0104 89.5469 49.5312C90.8073 50.0521 91.776 50.8229 92.4531 51.8438C93.1302 52.8646 93.4688 54.1198 93.4688 55.6094C93.4688 56.8281 93.2604 57.875 92.8438 58.75C92.4375 59.6146 91.8594 60.3385 91.1094 60.9219C90.3698 61.4948 89.5 61.9531 88.5 62.2969L87.0156 63.0781H79.6406L79.6094 59.4219H85.0938C85.9167 59.4219 86.599 59.276 87.1406 58.9844C87.6823 58.6927 88.0885 58.2865 88.3594 57.7656C88.6406 57.2448 88.7812 56.6406 88.7812 55.9531C88.7812 55.224 88.6458 54.5938 88.375 54.0625C88.1042 53.5312 87.6927 53.125 87.1406 52.8438C86.5885 52.5625 85.8958 52.4219 85.0625 52.4219H81.2656V71.5H76.5781V48.75ZM89.2969 71.5L84.1094 61.3594L89.0625 61.3281L94.3125 71.2812V71.5H89.2969ZM96.0781 63.2188V62.8906C96.0781 61.651 96.2552 60.5104 96.6094 59.4688C96.9635 58.4167 97.4792 57.5052 98.1562 56.7344C98.8333 55.9635 99.6667 55.3646 100.656 54.9375C101.646 54.5 102.781 54.2812 104.062 54.2812C105.344 54.2812 106.484 54.5 107.484 54.9375C108.484 55.3646 109.323 55.9635 110 56.7344C110.688 57.5052 111.208 58.4167 111.562 59.4688C111.917 60.5104 112.094 61.651 112.094 62.8906V63.2188C112.094 64.4479 111.917 65.5885 111.562 66.6406C111.208 67.6823 110.688 68.5938 110 69.375C109.323 70.1458 108.49 70.7448 107.5 71.1719C106.51 71.599 105.375 71.8125 104.094 71.8125C102.812 71.8125 101.672 71.599 100.672 71.1719C99.6823 70.7448 98.8438 70.1458 98.1562 69.375C97.4792 68.5938 96.9635 67.6823 96.6094 66.6406C96.2552 65.5885 96.0781 64.4479 96.0781 63.2188ZM100.578 62.8906V63.2188C100.578 63.9271 100.641 64.5885 100.766 65.2031C100.891 65.8177 101.089 66.3594 101.359 66.8281C101.641 67.2865 102.005 67.6458 102.453 67.9062C102.901 68.1667 103.448 68.2969 104.094 68.2969C104.719 68.2969 105.255 68.1667 105.703 67.9062C106.151 67.6458 106.51 67.2865 106.781 66.8281C107.052 66.3594 107.25 65.8177 107.375 65.2031C107.51 64.5885 107.578 63.9271 107.578 63.2188V62.8906C107.578 62.2031 107.51 61.5573 107.375 60.9531C107.25 60.3385 107.047 59.7969 106.766 59.3281C106.495 58.849 106.135 58.474 105.688 58.2031C105.24 57.9323 104.698 57.7969 104.062 57.7969C103.427 57.7969 102.885 57.9323 102.438 58.2031C102 58.474 101.641 58.849 101.359 59.3281C101.089 59.7969 100.891 60.3385 100.766 60.9531C100.641 61.5573 100.578 62.2031 100.578 62.8906ZM124.844 67.8125V47.5H129.375V71.5H125.297L124.844 67.8125ZM114.156 63.25V62.9219C114.156 61.6302 114.302 60.4583 114.594 59.4062C114.885 58.3438 115.312 57.4323 115.875 56.6719C116.438 55.9115 117.13 55.3229 117.953 54.9062C118.776 54.4896 119.714 54.2812 120.766 54.2812C121.755 54.2812 122.62 54.4896 123.359 54.9062C124.109 55.3229 124.745 55.9167 125.266 56.6875C125.797 57.4479 126.224 58.349 126.547 59.3906C126.87 60.4219 127.104 61.5521 127.25 62.7812V63.5C127.104 64.6771 126.87 65.7708 126.547 66.7812C126.224 67.7917 125.797 68.6771 125.266 69.4375C124.745 70.1875 124.109 70.7708 123.359 71.1875C122.609 71.6042 121.734 71.8125 120.734 71.8125C119.682 71.8125 118.745 71.599 117.922 71.1719C117.109 70.7448 116.422 70.1458 115.859 69.375C115.307 68.6042 114.885 67.6979 114.594 66.6562C114.302 65.6146 114.156 64.4792 114.156 63.25ZM118.656 62.9219V63.25C118.656 63.9479 118.708 64.599 118.812 65.2031C118.927 65.8073 119.109 66.3438 119.359 66.8125C119.62 67.2708 119.953 67.6302 120.359 67.8906C120.776 68.1406 121.281 68.2656 121.875 68.2656C122.646 68.2656 123.281 68.0938 123.781 67.75C124.281 67.3958 124.661 66.9115 124.922 66.2969C125.193 65.6823 125.349 64.974 125.391 64.1719V62.125C125.359 61.4688 125.266 60.8802 125.109 60.3594C124.964 59.8281 124.745 59.375 124.453 59C124.172 58.625 123.818 58.3333 123.391 58.125C122.974 57.9167 122.479 57.8125 121.906 57.8125C121.323 57.8125 120.823 57.9479 120.406 58.2188C119.99 58.4792 119.651 58.8385 119.391 59.2969C119.141 59.7552 118.953 60.2969 118.828 60.9219C118.714 61.5365 118.656 62.2031 118.656 62.9219ZM137.391 58.2812V71.5H132.891V54.5938H137.125L137.391 58.2812ZM142.484 54.4844L142.406 58.6562C142.188 58.625 141.922 58.599 141.609 58.5781C141.307 58.5469 141.031 58.5312 140.781 58.5312C140.146 58.5312 139.594 58.6146 139.125 58.7812C138.667 58.9375 138.281 59.1719 137.969 59.4844C137.667 59.7969 137.438 60.1771 137.281 60.625C137.135 61.0729 137.052 61.5833 137.031 62.1562L136.125 61.875C136.125 60.7812 136.234 59.776 136.453 58.8594C136.672 57.9323 136.99 57.125 137.406 56.4375C137.833 55.75 138.354 55.2188 138.969 54.8438C139.583 54.4688 140.286 54.2812 141.078 54.2812C141.328 54.2812 141.583 54.3021 141.844 54.3438C142.104 54.375 142.318 54.4219 142.484 54.4844ZM149.359 54.5938V71.5H144.844V54.5938H149.359ZM144.562 50.1875C144.562 49.5312 144.792 48.9896 145.25 48.5625C145.708 48.1354 146.323 47.9219 147.094 47.9219C147.854 47.9219 148.464 48.1354 148.922 48.5625C149.391 48.9896 149.625 49.5312 149.625 50.1875C149.625 50.8438 149.391 51.3854 148.922 51.8125C148.464 52.2396 147.854 52.4531 147.094 52.4531C146.323 52.4531 145.708 52.2396 145.25 51.8125C144.792 51.3854 144.562 50.8438 144.562 50.1875ZM163.781 54.5938H167.859V70.9375C167.859 72.4792 167.516 73.7865 166.828 74.8594C166.151 75.9427 165.203 76.7604 163.984 77.3125C162.766 77.875 161.349 78.1562 159.734 78.1562C159.026 78.1562 158.276 78.0625 157.484 77.875C156.703 77.6875 155.953 77.3958 155.234 77C154.526 76.6042 153.932 76.1042 153.453 75.5L155.438 72.8438C155.958 73.4479 156.562 73.9167 157.25 74.25C157.938 74.5938 158.698 74.7656 159.531 74.7656C160.344 74.7656 161.031 74.6146 161.594 74.3125C162.156 74.0208 162.589 73.5885 162.891 73.0156C163.193 72.4531 163.344 71.7708 163.344 70.9688V58.5L163.781 54.5938ZM152.406 63.25V62.9219C152.406 61.6302 152.562 60.4583 152.875 59.4062C153.198 58.3438 153.651 57.4323 154.234 56.6719C154.828 55.9115 155.547 55.3229 156.391 54.9062C157.234 54.4896 158.188 54.2812 159.25 54.2812C160.375 54.2812 161.318 54.4896 162.078 54.9062C162.839 55.3229 163.464 55.9167 163.953 56.6875C164.443 57.4479 164.823 58.349 165.094 59.3906C165.375 60.4219 165.594 61.5521 165.75 62.7812V63.5C165.594 64.6771 165.359 65.7708 165.047 66.7812C164.734 67.7917 164.323 68.6771 163.812 69.4375C163.302 70.1875 162.667 70.7708 161.906 71.1875C161.156 71.6042 160.26 71.8125 159.219 71.8125C158.177 71.8125 157.234 71.599 156.391 71.1719C155.557 70.7448 154.844 70.1458 154.25 69.375C153.656 68.6042 153.198 67.6979 152.875 66.6562C152.562 65.6146 152.406 64.4792 152.406 63.25ZM156.906 62.9219V63.25C156.906 63.9479 156.974 64.599 157.109 65.2031C157.245 65.8073 157.453 66.3438 157.734 66.8125C158.026 67.2708 158.385 67.6302 158.812 67.8906C159.25 68.1406 159.766 68.2656 160.359 68.2656C161.182 68.2656 161.854 68.0938 162.375 67.75C162.896 67.3958 163.286 66.9115 163.547 66.2969C163.807 65.6823 163.958 64.974 164 64.1719V62.125C163.979 61.4688 163.891 60.8802 163.734 60.3594C163.578 59.8281 163.359 59.375 163.078 59C162.797 58.625 162.432 58.3333 161.984 58.125C161.536 57.9167 161.005 57.8125 160.391 57.8125C159.797 57.8125 159.281 57.9479 158.844 58.2188C158.417 58.4792 158.057 58.8385 157.766 59.2969C157.484 59.7552 157.271 60.2969 157.125 60.9219C156.979 61.5365 156.906 62.2031 156.906 62.9219ZM170.641 63.2188V62.8906C170.641 61.651 170.818 60.5104 171.172 59.4688C171.526 58.4167 172.042 57.5052 172.719 56.7344C173.396 55.9635 174.229 55.3646 175.219 54.9375C176.208 54.5 177.344 54.2812 178.625 54.2812C179.906 54.2812 181.047 54.5 182.047 54.9375C183.047 55.3646 183.885 55.9635 184.562 56.7344C185.25 57.5052 185.771 58.4167 186.125 59.4688C186.479 60.5104 186.656 61.651 186.656 62.8906V63.2188C186.656 64.4479 186.479 65.5885 186.125 66.6406C185.771 67.6823 185.25 68.5938 184.562 69.375C183.885 70.1458 183.052 70.7448 182.062 71.1719C181.073 71.599 179.938 71.8125 178.656 71.8125C177.375 71.8125 176.234 71.599 175.234 71.1719C174.245 70.7448 173.406 70.1458 172.719 69.375C172.042 68.5938 171.526 67.6823 171.172 66.6406C170.818 65.5885 170.641 64.4479 170.641 63.2188ZM175.141 62.8906V63.2188C175.141 63.9271 175.203 64.5885 175.328 65.2031C175.453 65.8177 175.651 66.3594 175.922 66.8281C176.203 67.2865 176.568 67.6458 177.016 67.9062C177.464 68.1667 178.01 68.2969 178.656 68.2969C179.281 68.2969 179.818 68.1667 180.266 67.9062C180.714 67.6458 181.073 67.2865 181.344 66.8281C181.615 66.3594 181.812 65.8177 181.938 65.2031C182.073 64.5885 182.141 63.9271 182.141 63.2188V62.8906C182.141 62.2031 182.073 61.5573 181.938 60.9531C181.812 60.3385 181.609 59.7969 181.328 59.3281C181.057 58.849 180.698 58.474 180.25 58.2031C179.802 57.9323 179.26 57.7969 178.625 57.7969C177.99 57.7969 177.448 57.9323 177 58.2031C176.562 58.474 176.203 58.849 175.922 59.3281C175.651 59.7969 175.453 60.3385 175.328 60.9531C175.203 61.5573 175.141 62.2031 175.141 62.8906ZM215.703 59.6094V68.625C215.349 69.0521 214.802 69.5156 214.062 70.0156C213.323 70.5052 212.37 70.9271 211.203 71.2812C210.036 71.6354 208.625 71.8125 206.969 71.8125C205.5 71.8125 204.161 71.5729 202.953 71.0938C201.745 70.6042 200.703 69.8906 199.828 68.9531C198.964 68.0156 198.297 66.8698 197.828 65.5156C197.359 64.151 197.125 62.5938 197.125 60.8438V59.4219C197.125 57.6719 197.349 56.1146 197.797 54.75C198.255 53.3854 198.906 52.2344 199.75 51.2969C200.594 50.3594 201.599 49.6458 202.766 49.1562C203.932 48.6667 205.229 48.4219 206.656 48.4219C208.635 48.4219 210.26 48.7448 211.531 49.3906C212.802 50.026 213.771 50.9115 214.438 52.0469C215.115 53.1719 215.531 54.4635 215.688 55.9219H211.141C211.026 55.151 210.807 54.4792 210.484 53.9062C210.161 53.3333 209.698 52.8854 209.094 52.5625C208.5 52.2396 207.729 52.0781 206.781 52.0781C206 52.0781 205.302 52.2396 204.688 52.5625C204.083 52.875 203.573 53.3385 203.156 53.9531C202.74 54.5677 202.422 55.3281 202.203 56.2344C201.984 57.1406 201.875 58.1927 201.875 59.3906V60.8438C201.875 62.0312 201.99 63.0833 202.219 64C202.448 64.9062 202.786 65.6719 203.234 66.2969C203.693 66.9115 204.255 67.375 204.922 67.6875C205.589 68 206.365 68.1562 207.25 68.1562C207.99 68.1562 208.604 68.0938 209.094 67.9688C209.594 67.8438 209.995 67.6927 210.297 67.5156C210.609 67.3281 210.849 67.151 211.016 66.9844V62.9531H206.734V59.6094H215.703ZM218.484 63.2188V62.8906C218.484 61.651 218.661 60.5104 219.016 59.4688C219.37 58.4167 219.885 57.5052 220.562 56.7344C221.24 55.9635 222.073 55.3646 223.062 54.9375C224.052 54.5 225.188 54.2812 226.469 54.2812C227.75 54.2812 228.891 54.5 229.891 54.9375C230.891 55.3646 231.729 55.9635 232.406 56.7344C233.094 57.5052 233.615 58.4167 233.969 59.4688C234.323 60.5104 234.5 61.651 234.5 62.8906V63.2188C234.5 64.4479 234.323 65.5885 233.969 66.6406C233.615 67.6823 233.094 68.5938 232.406 69.375C231.729 70.1458 230.896 70.7448 229.906 71.1719C228.917 71.599 227.781 71.8125 226.5 71.8125C225.219 71.8125 224.078 71.599 223.078 71.1719C222.089 70.7448 221.25 70.1458 220.562 69.375C219.885 68.5938 219.37 67.6823 219.016 66.6406C218.661 65.5885 218.484 64.4479 218.484 63.2188ZM222.984 62.8906V63.2188C222.984 63.9271 223.047 64.5885 223.172 65.2031C223.297 65.8177 223.495 66.3594 223.766 66.8281C224.047 67.2865 224.411 67.6458 224.859 67.9062C225.307 68.1667 225.854 68.2969 226.5 68.2969C227.125 68.2969 227.661 68.1667 228.109 67.9062C228.557 67.6458 228.917 67.2865 229.188 66.8281C229.458 66.3594 229.656 65.8177 229.781 65.2031C229.917 64.5885 229.984 63.9271 229.984 63.2188V62.8906C229.984 62.2031 229.917 61.5573 229.781 60.9531C229.656 60.3385 229.453 59.7969 229.172 59.3281C228.901 58.849 228.542 58.474 228.094 58.2031C227.646 57.9323 227.104 57.7969 226.469 57.7969C225.833 57.7969 225.292 57.9323 224.844 58.2031C224.406 58.474 224.047 58.849 223.766 59.3281C223.495 59.7969 223.297 60.3385 223.172 60.9531C223.047 61.5573 222.984 62.2031 222.984 62.8906ZM241.672 58.2031V71.5H237.172V54.5938H241.391L241.672 58.2031ZM241.016 62.4531H239.797C239.797 61.2031 239.958 60.0781 240.281 59.0781C240.604 58.0677 241.057 57.2083 241.641 56.5C242.224 55.7812 242.917 55.2344 243.719 54.8594C244.531 54.474 245.438 54.2812 246.438 54.2812C247.229 54.2812 247.953 54.3958 248.609 54.625C249.266 54.8542 249.828 55.2188 250.297 55.7188C250.776 56.2188 251.141 56.8802 251.391 57.7031C251.651 58.526 251.781 59.5312 251.781 60.7188V71.5H247.25V60.7031C247.25 59.9531 247.146 59.3698 246.938 58.9531C246.729 58.5365 246.422 58.2448 246.016 58.0781C245.62 57.901 245.13 57.8125 244.547 57.8125C243.943 57.8125 243.417 57.9323 242.969 58.1719C242.531 58.4115 242.167 58.7448 241.875 59.1719C241.594 59.5885 241.38 60.0781 241.234 60.6406C241.089 61.2031 241.016 61.8073 241.016 62.4531ZM262.188 68.2969C262.74 68.2969 263.229 68.1927 263.656 67.9844C264.083 67.7656 264.417 67.4635 264.656 67.0781C264.906 66.6823 265.036 66.2188 265.047 65.6875H269.281C269.271 66.875 268.953 67.9323 268.328 68.8594C267.703 69.776 266.865 70.5 265.812 71.0312C264.76 71.5521 263.583 71.8125 262.281 71.8125C260.969 71.8125 259.823 71.5938 258.844 71.1562C257.875 70.7188 257.068 70.1146 256.422 69.3438C255.776 68.5625 255.292 67.6562 254.969 66.625C254.646 65.5833 254.484 64.4688 254.484 63.2812V62.8281C254.484 61.6302 254.646 60.5156 254.969 59.4844C255.292 58.4427 255.776 57.5365 256.422 56.7656C257.068 55.9844 257.875 55.375 258.844 54.9375C259.812 54.5 260.948 54.2812 262.25 54.2812C263.635 54.2812 264.849 54.5469 265.891 55.0781C266.943 55.6094 267.766 56.3698 268.359 57.3594C268.964 58.3385 269.271 59.5 269.281 60.8438H265.047C265.036 60.2812 264.917 59.7708 264.688 59.3125C264.469 58.8542 264.146 58.4896 263.719 58.2188C263.302 57.9375 262.786 57.7969 262.172 57.7969C261.516 57.7969 260.979 57.9375 260.562 58.2188C260.146 58.4896 259.823 58.8646 259.594 59.3438C259.365 59.8125 259.203 60.349 259.109 60.9531C259.026 61.5469 258.984 62.1719 258.984 62.8281V63.2812C258.984 63.9375 259.026 64.5677 259.109 65.1719C259.193 65.776 259.349 66.3125 259.578 66.7812C259.818 67.25 260.146 67.6198 260.562 67.8906C260.979 68.1615 261.521 68.2969 262.188 68.2969ZM260.5 71.4375H263.891L263.719 72.3594C264.312 72.4635 264.854 72.7135 265.344 73.1094C265.833 73.5052 266.078 74.1562 266.078 75.0625C266.078 75.6146 265.958 76.1146 265.719 76.5625C265.49 77.0104 265.146 77.3958 264.688 77.7188C264.229 78.0521 263.656 78.3021 262.969 78.4688C262.281 78.6458 261.49 78.7344 260.594 78.7344L260.484 76.2344C260.818 76.2344 261.12 76.1875 261.391 76.0938C261.661 76 261.875 75.8542 262.031 75.6562C262.188 75.4688 262.266 75.2188 262.266 74.9062C262.266 74.6146 262.188 74.3854 262.031 74.2188C261.875 74.0521 261.63 73.9271 261.297 73.8438C260.974 73.7604 260.547 73.7031 260.016 73.6719L260.5 71.4375ZM281.016 67.6875V60.1562C281.016 59.6146 280.927 59.151 280.75 58.7656C280.573 58.3698 280.297 58.0625 279.922 57.8438C279.557 57.625 279.083 57.5156 278.5 57.5156C278 57.5156 277.568 57.6042 277.203 57.7812C276.839 57.9479 276.557 58.1927 276.359 58.5156C276.161 58.8281 276.062 59.1979 276.062 59.625H271.562C271.562 58.9062 271.729 58.224 272.062 57.5781C272.396 56.9323 272.88 56.3646 273.516 55.875C274.151 55.375 274.906 54.9844 275.781 54.7031C276.667 54.4219 277.656 54.2812 278.75 54.2812C280.062 54.2812 281.229 54.5 282.25 54.9375C283.271 55.375 284.073 56.0312 284.656 56.9062C285.25 57.7812 285.547 58.875 285.547 60.1875V67.4219C285.547 68.349 285.604 69.1094 285.719 69.7031C285.833 70.2865 286 70.7969 286.219 71.2344V71.5H281.672C281.453 71.0417 281.286 70.4688 281.172 69.7812C281.068 69.0833 281.016 68.3854 281.016 67.6875ZM281.609 61.2031L281.641 63.75H279.125C278.531 63.75 278.016 63.8177 277.578 63.9531C277.141 64.0885 276.781 64.2812 276.5 64.5312C276.219 64.7708 276.01 65.0521 275.875 65.375C275.75 65.6979 275.688 66.0521 275.688 66.4375C275.688 66.8229 275.776 67.1719 275.953 67.4844C276.13 67.7865 276.385 68.026 276.719 68.2031C277.052 68.3698 277.443 68.4531 277.891 68.4531C278.568 68.4531 279.156 68.3177 279.656 68.0469C280.156 67.776 280.542 67.4427 280.812 67.0469C281.094 66.651 281.24 66.276 281.25 65.9219L282.438 67.8281C282.271 68.2552 282.042 68.6979 281.75 69.1562C281.469 69.6146 281.109 70.0469 280.672 70.4531C280.234 70.849 279.708 71.1771 279.094 71.4375C278.479 71.6875 277.75 71.8125 276.906 71.8125C275.833 71.8125 274.859 71.599 273.984 71.1719C273.12 70.7344 272.432 70.1354 271.922 69.375C271.422 68.6042 271.172 67.7292 271.172 66.75C271.172 65.8646 271.339 65.0781 271.672 64.3906C272.005 63.7031 272.495 63.125 273.141 62.6562C273.797 62.1771 274.615 61.8177 275.594 61.5781C276.573 61.3281 277.708 61.2031 279 61.2031H281.609ZM293.766 47.5V71.5H289.25V47.5H293.766ZM303.234 68.2188L306.984 54.5938H311.688L305.984 71.5H303.141L303.234 68.2188ZM300.656 54.5938L304.422 68.2344L304.5 71.5H301.641L295.938 54.5938H300.656ZM321.266 71.8125C319.953 71.8125 318.776 71.6042 317.734 71.1875C316.693 70.7604 315.807 70.1719 315.078 69.4219C314.359 68.6719 313.807 67.8021 313.422 66.8125C313.036 65.8125 312.844 64.75 312.844 63.625V63C312.844 61.7188 313.026 60.5469 313.391 59.4844C313.755 58.4219 314.276 57.5 314.953 56.7188C315.641 55.9375 316.474 55.3385 317.453 54.9219C318.432 54.4948 319.536 54.2812 320.766 54.2812C321.964 54.2812 323.026 54.4792 323.953 54.875C324.88 55.2708 325.656 55.8333 326.281 56.5625C326.917 57.2917 327.396 58.1667 327.719 59.1875C328.042 60.1979 328.203 61.3229 328.203 62.5625V64.4375H314.766V61.4375H323.781V61.0938C323.781 60.4688 323.667 59.9115 323.438 59.4219C323.219 58.9219 322.885 58.526 322.438 58.2344C321.99 57.9427 321.417 57.7969 320.719 57.7969C320.125 57.7969 319.615 57.9271 319.188 58.1875C318.76 58.4479 318.411 58.8125 318.141 59.2812C317.88 59.75 317.682 60.3021 317.547 60.9375C317.422 61.5625 317.359 62.25 317.359 63V63.625C317.359 64.3021 317.453 64.9271 317.641 65.5C317.839 66.0729 318.115 66.5677 318.469 66.9844C318.833 67.401 319.271 67.724 319.781 67.9531C320.302 68.1823 320.891 68.2969 321.547 68.2969C322.359 68.2969 323.115 68.1406 323.812 67.8281C324.521 67.5052 325.13 67.0208 325.641 66.375L327.828 68.75C327.474 69.2604 326.99 69.75 326.375 70.2188C325.771 70.6875 325.042 71.0729 324.188 71.375C323.333 71.6667 322.359 71.8125 321.266 71.8125ZM339.906 66.8281C339.906 66.5052 339.812 66.2135 339.625 65.9531C339.438 65.6927 339.089 65.4531 338.578 65.2344C338.078 65.0052 337.354 64.7969 336.406 64.6094C335.552 64.4219 334.755 64.1875 334.016 63.9062C333.286 63.6146 332.651 63.2656 332.109 62.8594C331.578 62.4531 331.161 61.974 330.859 61.4219C330.557 60.8594 330.406 60.2188 330.406 59.5C330.406 58.7917 330.557 58.125 330.859 57.5C331.172 56.875 331.615 56.3229 332.188 55.8438C332.771 55.3542 333.479 54.974 334.312 54.7031C335.156 54.4219 336.104 54.2812 337.156 54.2812C338.625 54.2812 339.885 54.5156 340.938 54.9844C342 55.4531 342.812 56.099 343.375 56.9219C343.948 57.7344 344.234 58.6615 344.234 59.7031H339.734C339.734 59.2656 339.641 58.875 339.453 58.5312C339.276 58.1771 338.995 57.901 338.609 57.7031C338.234 57.4948 337.745 57.3906 337.141 57.3906C336.641 57.3906 336.208 57.4792 335.844 57.6562C335.479 57.8229 335.198 58.0521 335 58.3438C334.812 58.625 334.719 58.9375 334.719 59.2812C334.719 59.5417 334.771 59.776 334.875 59.9844C334.99 60.1823 335.172 60.3646 335.422 60.5312C335.672 60.6979 335.995 60.8542 336.391 61C336.797 61.1354 337.297 61.2604 337.891 61.375C339.109 61.625 340.198 61.9531 341.156 62.3594C342.115 62.7552 342.875 63.2969 343.438 63.9844C344 64.6615 344.281 65.5521 344.281 66.6562C344.281 67.4062 344.115 68.0938 343.781 68.7188C343.448 69.3438 342.969 69.8906 342.344 70.3594C341.719 70.8177 340.969 71.1771 340.094 71.4375C339.229 71.6875 338.255 71.8125 337.172 71.8125C335.599 71.8125 334.266 71.5312 333.172 70.9688C332.089 70.4062 331.266 69.6927 330.703 68.8281C330.151 67.9531 329.875 67.0573 329.875 66.1406H334.141C334.161 66.7552 334.318 67.25 334.609 67.625C334.911 68 335.292 68.2708 335.75 68.4375C336.219 68.6042 336.724 68.6875 337.266 68.6875C337.849 68.6875 338.333 68.6094 338.719 68.4531C339.104 68.2865 339.396 68.0677 339.594 67.7969C339.802 67.5156 339.906 67.1927 339.906 66.8281Z" fill="#EAEAEA"/>
</svg>
